<?xml version="1.0" encoding="utf-8"?>
<?xml-stylesheet type="text/xsl" href="rss1.xsl"?>
<rss version="2.0" xmlns:atom="http://www.w3.org/2005/Atom" xmlns:content="http://purl.org/rss/1.0/modules/content/" xmlns:dc="http://purl.org/dc/elements/1.1/" xmlns:media="http://search.yahoo.com/mrss/">
<channel>
 <title>Getty</title>
 <link>http://www.gettyimg.com/</link>
 <atom:link href="http://www.gettyimg.com/" rel="self" type="application/rss+xml" />

 
                <item>
                <title><![CDATA[【Albums (lossless)】WAV - Whitney Houston - I'm Your Baby Tonight [US CD - ARCD-8616]]]></title>
                <link><![CDATA[https://sharemania.us/threads/whitney-houston-im-your-baby-tonight-us-cd-arcd-8616.237479/]]></link>
                <description><![CDATA[<article>
<blockquote class="messageText SelectQuoteContainer ugc baseHtml">
<img src="https://pbs.twimg.com/media/GGBg3S3WMAAnOd1?format=jpg&amp;name=large" class="bbCodeImage LbImage" alt="[​IMG]" data-url="https://pbs.twimg.com/media/GGBg3S3WMAAnOd1?format=jpg&amp;name=large" style=""> <br>
<br>
01. I'm Your Baby Tonight<br>
02. My Name Is Not Susan<br>
03. All The Man That I Need<br>
04. Lover for Life<br>
05. Anymore<br>
06. Miracle<br>
07. I Belong To You<br>
08. Who Do You Love<br>
09. We Didn't Know (Duet With Stevie Wonder)<br>
10. After We Make Love<br>
11. I'm Knockin'<br>
<br>
Discogs: <a href="https://www.discogs.com/release/1844976-Whitney-Houston-Im-Your-Baby-Tonight" target="_blank" class="externalLink" rel="nofollow">https://www.discogs.com/release/1844976-Whitney-Houston-Im-Your-Baby-Tonight</a><br>
<br>
WAV:
<div class="bbCodeBlock bbCodeVfcHH HiddenContent">
<div class="attribution type">Hidden Content:</div>
<blockquote>You must reply before you can see the hidden data contained here.</blockquote>
</div>
<div class="messageTextEndMarker">&nbsp;</div>
</blockquote>
</article>]]></description>
                <author><![CDATA[nukleopatra]]></author>
                </item>

                
                <item>
                <title><![CDATA[【Music Videos】Pet Shop Boys - Left To My Own Devices (Extended) VJ-RoGeRs Edit (Clean)]]></title>
                <link><![CDATA[https://sharemania.us/threads/pet-shop-boys-left-to-my-own-devices-extended-vj-rogers-edit-clean.237478/]]></link>
                <description><![CDATA[<article>
<blockquote class="messageText SelectQuoteContainer ugc baseHtml">
<img src="https://i.ibb.co/51K7gz9/Pet-Shop-Boys-Left-To-My-Own-Devices-Extended-VJ-Ro-Ge-Rs-Video-Edit-mp4-thumbs-2024-02-10-22-22-41.jpg" class="bbCodeImage LbImage" alt="[​IMG]" data-url="https://i.ibb.co/51K7gz9/Pet-Shop-Boys-Left-To-My-Own-Devices-Extended-VJ-Ro-Ge-Rs-Video-Edit-mp4-thumbs-2024-02-10-22-22-41.jpg" style=""> <br>
<br>
<div class="ToggleTriggerAnchor bbCodeSpoilerContainer">
<button type="button" class="button bbCodeSpoilerButton ToggleTrigger Tooltip JsOnly" data-target="> .SpoilerTarget"><span>Spoiler: <span class="SpoilerTitle">MediaInfo</span></span></button>
<div class="SpoilerTarget bbCodeSpoilerText">Pet Shop Boys-Left To My Own Devices (Extended) VJ-RoGeRs Video Edit.mp4<br>
Format : MPEG-4<br>
Format profile : Base Media / Version 2<br>
Codec ID : mp42 (mp42/mp41)<br>
File size : 611 MiB<br>
Duration : 8 min 17 s<br>
Overall bit rate mode : Variable<br>
Overall bit rate : 10.3 Mb/s<br>
Frame rate : 29.970 FPS<br>
Encoded date : 2021-01-28 00:29:32 UTC<br>
Tagged date : 2021-01-28 00:29:47 UTC<br>
TIM : 00:00:00:00<br>
TSC : 30000<br>
TSZ : 1001<br>
<br>
Video<br>
ID : 1<br>
Format : AVC<br>
Format/Info : Advanced Video Codec<br>
Format profile : Main@L4.1<br>
Format settings : CABAC / 4 Ref Frames<br>
Format settings, CABAC : Yes<br>
Format settings, Reference : 4 frames<br>
Codec ID : avc1<br>
Codec ID/Info : Advanced Video Coding<br>
Duration : 8 min 17 s<br>
Source duration : 8 min 17 s<br>
Bit rate : 9 986 kb/s<br>
Width : 1 280 pixels<br>
Height : 720 pixels<br>
Display aspect ratio : 16:9<br>
Frame rate mode : Constant<br>
Frame rate : 29.970 (30000/1001) FPS<br>
Standard : NTSC<br>
Color space : YUV<br>
Chroma subsampling : 4:2:0<br>
Bit depth : 8 bits<br>
Scan type : Progressive<br>
Bits/(Pixel*Frame) : 0.362<br>
Stream size : 592 MiB (97%)<br>
Source stream size : 592 MiB (97%)<br>
Language : English<br>
Encoded date : 2021-01-28 00:29:32 UTC<br>
Tagged date : 2021-01-28 00:29:32 UTC<br>
Color range : Limited<br>
Color primaries : BT.709<br>
Transfer characteristics : BT.709<br>
Matrix coefficients : BT.709<br>
Codec configuration box : avcC<br>
<br>
Audio<br>
ID : 2<br>
Format : AAC LC<br>
Format/Info : Advanced Audio Codec Low Complexity<br>
Codec ID : mp4a-40-2<br>
Duration : 8 min 17 s<br>
Source duration : 8 min 17 s<br>
Bit rate mode : Variable<br>
Bit rate : 317 kb/s<br>
Maximum bit rate : 418 kb/s<br>
Channel(s) : 2 channels<br>
Channel layout : L R<br>
Sampling rate : 48.0 kHz<br>
Frame rate : 46.875 FPS (1024 SPF)<br>
Compression mode : Lossy<br>
Stream size : 18.8 MiB (3%)<br>
Source stream size : 18.8 MiB (3%)<br>
Language : English<br>
Encoded date : 2021-01-28 00:29:32 UTC<br>
Tagged date : 2021-01-28 00:29:32 UTC</div>
</div><br>
<div class="bbCodeBlock bbCodeVfcHH HiddenContent">
<div class="attribution type">Hidden Content:</div>
<blockquote>You must reply before you can see the hidden data contained here.</blockquote>
</div>
<div class="messageTextEndMarker">&nbsp;</div>
</blockquote>
</article>]]></description>
                <author><![CDATA[DJ-RoGeRs-BS]]></author>
                </item>

                </channel></rss>